<?xml version="1.0" encoding="utf-8"?>
<!-- Generator: Adobe Illustrator 24.3.0, SVG Export Plug-In . SVG Version: 6.00 Build 0)  -->
<svg version="1.1" id="Layer_1" xmlns="http://www.w3.org/2000/svg" xmlns:xlink="http://www.w3.org/1999/xlink" x="0px" y="0px"
	 viewBox="0 0 219.9 205.7" style="enable-background:new 0 0 219.9 205.7;" xml:space="preserve">
<style type="text/css">
	.st0{fill:#9F4FFC;}
</style>
<g>
	<g>
		<path class="st0" d="M216.8,9.1c0.4-1.4,0.7-2.9,1.1-4.4c0.1-0.5,0.2-0.9,0.3-1.4c0.2-0.7,0.4-1.5,0.5-2.2H52.1
			c-5.6,22.6-11.3,45.2-16.9,67.8c-5.6,22.6-11.3,45.2-17,67.8c-5.7,22.6-11.3,45.2-17,67.9c0.4,0,0.6,0,0.8,0c0.1,0,0.3,0,0.4,0
			c0,0,0.1,0,0.1,0c3.2-0.8,6.3-1.6,9.5-2.4c3.2-0.8,6.3-1.6,9.5-2.5c0.1,0,0.3-0.1,0.4-0.2c0.4-0.2,0.8-0.5,1.1-0.9
			c0.7-0.8,1.3-1.6,2-2.4c0.3-0.3,0.6-0.7,0.9-1c0.6-0.8,1.2-1.5,1.8-2.3c12-15.4,24-30.9,36.1-46.3c12-15.5,24-30.9,36-46.4
			c0.1-0.1,0.2-0.2,0.2-0.3c0.2-0.2,0.3-0.3,0.5-0.4c0.2-0.1,0.5-0.2,0.8-0.2c0.2,0,0.4,0,0.6,0.1c4.2,0.9,8.5,1.7,12.7,2.5
			c3.1,0.6,6.3,1.3,9.5,1.9c-1.2,11.1-2.4,22.2-3.6,33.3c-1.3,12.4-2.7,24.7-4,37.1c1.2-0.3,2.1-0.5,2.9-0.8
			c20-5.7,40.1-11.4,60.1-17.1c0.3-0.1,0.6-0.2,0.7-0.4c0.3-0.3,0.5-0.6,0.6-1.1c0.3-1.4,0.7-2.8,1-4.2c1.2-4.8,2.4-9.6,3.6-14.5
			c0.2-0.9,0.4-1.8,0.7-2.7c0.6-2.4,1.2-4.8,1.8-7.1c4.2-16.8,8.3-33.6,12.5-50.4c2.6-10.6,5.2-21.1,7.8-31.7
			c2.6-10.6,5.2-21.1,7.8-31.7C216.2,11.5,216.5,10.3,216.8,9.1z M178.2,99.8c-0.3,2.9-4.2,5.9-7,5.7c-2.8-3-6.4-4.7-10.2-6.2
			c-18.7-7.1-38.4-10.6-57.9-14.7c-0.2,0-0.3-0.1-0.5-0.1c-14-1.3-27.9-4.1-42-3.4c-2.8,0.1-5.6,0.8-8.4,1.2
			c-0.5,0.1-1.2-0.1-1.6-0.4c-1.6-1.4-2.6-3.2-3-5.3c-0.3-1.6,0.3-2.9,1.4-4.1c2.7-2.8,5.9-4.9,9.5-6.2c6.1-2.2,12.4-3.5,18.8-3.9
			c1.7-0.1,3.3-0.3,5-0.5c1-0.1,1.7-0.5,2.3-1.4c3-4.4,6.6-8.3,11.1-11.4c4.7-3.2,10.1-4.7,15.6-5.5c2.9-0.4,5.9-0.5,9-0.7
			c0.3-1.1,0.6-2.5,0.9-3.8c0.1-0.3-0.2-0.8-0.4-1.1c-1.8-2.7-1.8-6.1,0.1-8.7c1.6-2.3,4.1-3.2,6.8-2.4c2.5,0.7,4.4,3.1,4.6,5.6
			c0.2,3.5-1.3,5.9-4.7,7.5c-0.4,1.4-0.7,2.8-1,4.3c1.7,0.6,3.5,1.1,5.2,1.8c10.9,4.3,17.5,12.3,20.4,23.5c0.3,1.4,0.5,2.8,0.9,4.1
			c0.2,0.6,0.7,1.2,1.3,1.5c5.8,3.2,11.5,6.6,16.5,10.9c2.8,2.4,5.4,5.1,6.7,8.7C178,96.4,178.4,98.2,178.2,99.8z"/>
	</g>
</g>
</svg>
